<svg width="213" height="213" viewBox="0 0 213 213" fill="none" xmlns="http://www.w3.org/2000/svg">
<path d="M213 132.55C168.569 132.55 132.55 168.569 132.55 213H106.5C106.5 154.182 154.182 106.5 213 106.5V132.55Z" fill="white"/>
<path d="M80.4496 213C80.4496 168.569 44.4311 132.55 0 132.55V106.5C58.8183 106.5 106.5 154.182 106.5 213H80.4496Z" fill="white"/>
<path d="M0 80.4496C44.4311 80.4496 80.4496 44.4311 80.4496 0H106.5C106.5 58.8183 58.8183 106.5 0 106.5V80.4496Z" fill="white"/>
<path d="M132.55 1.1387e-06C132.55 44.4311 168.569 80.4496 213 80.4496V106.5C154.182 106.5 106.5 58.8183 106.5 0L132.55 1.1387e-06Z" fill="white"/>
<path d="M201.507 32.563C201.507 44.1997 192.074 53.6331 180.437 53.6331C168.8 53.6331 159.367 44.1997 159.367 32.563C159.367 20.9262 168.8 11.4928 180.437 11.4928C192.074 11.4928 201.507 20.9262 201.507 32.563Z" fill="white"/>
<path d="M52.8669 181.203C52.8669 192.84 43.4335 202.273 31.7968 202.273C20.16 202.273 10.7266 192.84 10.7266 181.203C10.7266 169.567 20.16 160.133 31.7968 160.133C43.4335 160.133 52.8669 169.567 52.8669 181.203Z" fill="white"/>
<path d="M52.8669 32.563C52.8669 44.1997 43.4335 53.6331 31.7968 53.6331C20.16 53.6331 10.7266 44.1997 10.7266 32.563C10.7266 20.9262 20.16 11.4928 31.7968 11.4928C43.4335 11.4928 52.8669 20.9262 52.8669 32.563Z" fill="white"/>
<path d="M201.507 181.203C201.507 192.84 192.074 202.273 180.437 202.273C168.8 202.273 159.367 192.84 159.367 181.203C159.367 169.567 168.8 160.133 180.437 160.133C192.074 160.133 201.507 169.567 201.507 181.203Z" fill="white"/>
</svg>
